<svg xmlns="http://www.w3.org/2000/svg" width="59" height="59" viewBox="0 0 59 59" fill="none"><path d="M23.4 46.9C17.1 46.9 11.3 44.5 6.8 40C2.4 35.6 0 29.7 0 23.4C0 17.1 2.4 11.3 6.9 6.9C11.3 2.4 17.2 0 23.4 0C29.7 0 35.6 2.4 40 6.9C44.4 11.3 46.9 17.2 46.9 23.5C46.9 29.8 44.4 35.6 40 40C35.6 44.4 29.7 46.9 23.4 46.9ZM23.4 1.9C17.6 1.9 12.2 4.1 8.1 8.2C4 12.3 1.8 17.7 1.8 23.5C1.8 29.3 4 34.7 8.1 38.8C12.2 42.9 17.6 45.1 23.4 45.1C29.2 45.1 34.6 42.9 38.7 38.8C42.8 34.7 45 29.3 45 23.5C45 17.7 42.8 12.3 38.7 8.2C34.6 4.1 29.2 1.9 23.4 1.9Z" fill="#00C194"></path><path d="M23.4 41.6C18.6 41.6 14 39.7 10.6 36.3C7.19999 32.9 5.29999 28.3 5.29999 23.5C5.29999 18.7 7.19999 14.1 10.6 10.7C14 7.29999 18.6 5.39999 23.4 5.39999C28.2 5.39999 32.8 7.29999 36.2 10.7C39.6 14.1 41.5 18.7 41.5 23.5C41.5 28.3 39.6 32.9 36.2 36.3C32.8 39.7 28.3 41.6 23.4 41.6ZM23.4 7.2C19.1 7.2 15 8.89999 11.9 12C8.79999 15.1 7.09999 19.2 7.09999 23.5C7.09999 27.8 8.79999 31.9 11.9 35C15 38.1 19.1 39.8 23.4 39.8C27.7 39.8 31.8 38.1 34.9 35C38 31.9 39.7 27.8 39.7 23.5C39.7 19.2 38 15.1 34.9 12C31.9 8.89999 27.8 7.2 23.4 7.2Z" fill="#00C194"></path><path d="M53 58.3C51.6 58.3 50.3 57.8 49.2 56.7L34.4 42L35.3 41.4C36.5 40.6 37.6 39.7 38.6 38.7C39.6 37.7 40.5 36.6 41.3 35.4L41.9 34.5L56.6 49.2C58.7 51.3 58.7 54.7 56.6 56.8C55.7 57.8 54.3 58.3 53 58.3ZM37.4 42.3L50.5 55.4C51.9 56.8 54.1 56.8 55.4 55.4C56.8 54 56.8 51.8 55.4 50.5L42.3 37.4C41.6 38.3 40.8 39.2 40 40.1C39.2 40.8 38.3 41.6 37.4 42.3Z" fill="#00C194"></path><path d="M31.9 33.8H15C14.5 33.8 14.1 33.4 14.1 32.9V18.6C14.1 18.1 14.5 17.7 15 17.7C15.5 17.7 15.9 18.1 15.9 18.6V32H31V18.6C31 18.1 31.4 17.7 31.9 17.7C32.4 17.7 32.8 18.1 32.8 18.6V32.9C32.9 33.4 32.4 33.8 31.9 33.8Z" fill="#00C194"></path><path d="M13.1 20.4C12.9 20.4 12.8 20.4 12.6 20.3C12.3 20.1 12.2 19.8 12.2 19.5V16C12.2 15.6 12.4 15.3 12.7 15.2L23 10.3C23.3 10.2 23.5 10.2 23.8 10.3L34.1 15.1C34.4 15.3 34.6 15.6 34.6 15.9V19.4C34.6 19.7 34.4 20 34.2 20.2C33.9 20.4 33.6 20.4 33.3 20.3L23.4 15.7L13.5 20.3C13.4 20.4 13.3 20.4 13.1 20.4ZM14.1 16.6V18L23.1 13.8C23.3 13.7 23.6 13.7 23.9 13.8L32.9 18V16.6L23.5 12.2L14.1 16.6Z" fill="#00C194"></path><path d="M25.8 33.8H21C20.5 33.8 20.1 33.4 20.1 32.9V25.3C20.1 24.8 20.5 24.4 21 24.4H25.8C26.3 24.4 26.7 24.8 26.7 25.3V32.9C26.8 33.4 26.3 33.8 25.8 33.8ZM22 32H24.9V26.3H22V32Z" fill="#00C194"></path></svg>